<svg width="162" height="48" viewBox="0 0 162 48" fill="none" xmlns="http://www.w3.org/2000/svg">
<path d="M156.236 48H5.6748C2.5464 48 0 45.4464 0 42.3204V5.6712C0 2.544 2.5464 0 5.6748 0H156.236C159.364 0 162 2.544 162 5.6712V42.3204C162 45.4464 159.364 48 156.236 48Z" fill="#A6A6A6"/>
<path d="M160.838 42.3216C160.838 44.8608 158.782 46.9176 156.238 46.9176H5.67479C3.13199 46.9176 1.06799 44.8608 1.06799 42.3216V5.67001C1.06799 3.13201 3.13199 1.06801 5.67479 1.06801H156.236C158.782 1.06801 160.837 3.13201 160.837 5.67001L160.838 42.3216Z" fill="black"/>
<path d="M36.1537 23.7408C36.1189 19.8732 39.3205 17.9916 39.4669 17.904C37.6537 15.2604 34.8433 14.8992 33.8557 14.8704C31.4953 14.622 29.2057 16.2828 28.0033 16.2828C26.7769 16.2828 24.9253 14.8944 22.9297 14.9352C20.3617 14.9748 17.9593 16.4616 16.6417 18.7704C13.9225 23.478 15.9505 30.396 18.5557 34.2012C19.8589 36.0648 21.3817 38.1456 23.3749 38.0724C25.3249 37.992 26.0533 36.8292 28.4065 36.8292C30.7381 36.8292 31.4221 38.0724 33.4549 38.0256C35.5477 37.992 36.8653 36.1536 38.1229 34.2732C39.6289 32.1372 40.2337 30.0336 40.2577 29.9256C40.2085 29.9088 36.1933 28.3764 36.1537 23.7408Z" fill="white"/>
<path d="M32.3137 12.3672C33.3625 11.0556 34.0801 9.2712 33.8809 7.4604C32.3629 7.5276 30.4645 8.5104 29.3713 9.7932C28.4041 10.9236 27.5401 12.7764 27.7633 14.5188C29.4685 14.646 31.2193 13.6584 32.3137 12.3672Z" fill="white"/>
<path d="M60.7728 22.6716H58.8816L57.846 19.416H54.246L53.2596 22.6716H51.4176L54.9852 11.592H57.1872L60.7728 22.6716ZM57.534 18.0516L56.5968 15.1584C56.4984 14.862 56.3124 14.1672 56.0376 13.0704H56.0052C55.896 13.542 55.7208 14.238 55.4796 15.1584L54.5592 18.0516H57.534Z" fill="white"/>
<path d="M69.7824 18.5784C69.7824 19.938 69.4152 21.0108 68.6808 21.8004C68.0232 22.5024 67.206 22.8528 66.2304 22.8528C65.1792 22.8528 64.422 22.476 63.9612 21.7188H63.9288V25.9272H62.154V17.3136C62.154 16.458 62.1312 15.582 62.088 14.6832H63.6492L63.7488 15.9492H63.7812C64.3728 14.9964 65.2716 14.52 66.4776 14.52C67.4208 14.52 68.2056 14.8932 68.8368 15.6384C69.468 16.3836 69.7824 17.3616 69.7824 18.5784ZM67.974 18.6444C67.974 17.8668 67.7988 17.2248 67.4484 16.7208C67.0644 16.1952 66.5496 15.9312 65.9028 15.9312C65.4648 15.9312 65.0664 16.0764 64.7112 16.3668C64.3548 16.6572 64.122 17.0388 64.0116 17.5092C63.9576 17.7288 63.93 17.9088 63.93 18.0516V19.3824C63.93 19.9632 64.1076 20.4552 64.464 20.8548C64.8204 21.2544 65.2836 21.4548 65.8536 21.4548C66.522 21.4548 67.0428 21.1968 67.4148 20.682C67.7868 20.1672 67.974 19.488 67.974 18.6444Z" fill="white"/>
<path d="M79.0537 18.5784C79.0537 19.938 78.6865 21.0108 77.9521 21.8004C77.2945 22.5024 76.4773 22.8528 75.5017 22.8528C74.4505 22.8528 73.6933 22.476 73.2325 21.7188H73.2001V25.9272H71.4253V17.3136C71.4253 16.458 71.4025 15.582 71.3593 14.6832H72.9205L73.0201 15.9492H73.0525C73.6441 14.9964 74.5429 14.52 75.7489 14.52C76.6921 14.52 77.4769 14.8932 78.1081 15.6384C78.7393 16.3836 79.0537 17.3616 79.0537 18.5784ZM77.2453 18.6444C77.2453 17.8668 77.0701 17.2248 76.7197 16.7208C76.3357 16.1952 75.8209 15.9312 75.1741 15.9312C74.7361 15.9312 74.3377 16.0764 73.9825 16.3668C73.6261 16.6572 73.3933 17.0388 73.2829 17.5092C73.2289 17.7288 73.2013 17.9088 73.2013 18.0516V19.3824C73.2013 19.9632 73.3789 20.4552 73.7353 20.8548C74.0917 21.2544 74.5549 21.4548 75.1249 21.4548C75.7933 21.4548 76.3141 21.1968 76.6861 20.682C77.0593 20.1672 77.2453 19.488 77.2453 18.6444Z" fill="white"/>
<path d="M91.0548 19.5648C91.0548 20.5068 90.7272 21.2748 90.0708 21.8664C89.3484 22.5132 88.344 22.836 87.0528 22.836C85.8612 22.836 84.9037 22.6068 84.1801 22.146L84.5916 20.6664C85.3692 21.1392 86.2248 21.3744 87.1572 21.3744C87.8268 21.3744 88.3476 21.2232 88.7208 20.9208C89.094 20.6196 89.2801 20.2152 89.2801 19.71C89.2801 19.26 89.1264 18.882 88.8192 18.5748C88.512 18.2676 88.002 17.982 87.2916 17.718C85.3512 16.9932 84.3805 15.9348 84.3805 14.5404C84.3805 13.6296 84.7201 12.8832 85.4005 12.3012C86.0797 11.7204 86.9845 11.4276 88.1137 11.4276C89.1217 11.4276 89.9605 11.6028 90.6289 11.9532L90.186 13.4004C89.5608 13.0608 88.8541 12.8904 88.0645 12.8904C87.4393 12.8904 86.9521 13.044 86.6005 13.3512C86.3053 13.626 86.1576 13.9596 86.1576 14.3532C86.1576 14.7924 86.3269 15.1536 86.6677 15.438C86.9629 15.702 87.4993 15.9864 88.2781 16.2936C89.2321 16.6764 89.9329 17.1264 90.3829 17.6412C90.8293 18.156 91.0548 18.798 91.0548 19.5648Z" fill="white"/>
<path d="M96.8089 16.0128H94.8528V19.8924C94.8528 20.8788 95.1972 21.372 95.8872 21.372C96.2064 21.372 96.4681 21.3444 96.6769 21.2904L96.7261 22.638C96.3745 22.7688 95.9149 22.8348 95.3449 22.8348C94.6441 22.8348 94.0957 22.6212 93.7021 22.194C93.3073 21.7668 93.1105 21.0492 93.1105 20.04V16.0128H91.9417V14.682H93.1105V13.218L94.8528 12.6924V14.6808H96.8089V16.0128Z" fill="white"/>
<path d="M105.556 18.6108C105.556 19.8372 105.204 20.8464 104.503 21.636C103.769 22.4472 102.793 22.8528 101.578 22.8528C100.404 22.8528 99.4703 22.464 98.7743 21.6852C98.0783 20.9064 97.7303 19.926 97.7303 18.7428C97.7303 17.5044 98.0891 16.4904 98.8067 15.702C99.5243 14.9124 100.492 14.5188 101.708 14.5188C102.882 14.5188 103.824 14.9076 104.536 15.6864C105.216 16.4412 105.556 17.4168 105.556 18.6108ZM103.715 18.6684C103.715 17.9328 103.555 17.2992 103.238 16.7724C102.865 16.1352 102.334 15.816 101.644 15.816C100.931 15.816 100.388 16.1352 100.016 16.7724C99.6983 17.2992 99.5399 17.9436 99.5399 18.7008C99.5399 19.4376 99.6995 20.07 100.016 20.5968C100.399 21.234 100.938 21.5532 101.628 21.5532C102.307 21.5532 102.839 21.228 103.223 20.58C103.549 20.0424 103.715 19.404 103.715 18.6684Z" fill="white"/>
<path d="M111.474 16.2444C111.299 16.212 111.113 16.1952 110.915 16.1952C110.29 16.1952 109.808 16.4304 109.469 16.902C109.172 17.3184 109.025 17.844 109.025 18.48V22.6716H107.25L107.267 17.1972C107.267 16.2768 107.244 15.438 107.201 14.682H108.746L108.812 16.2108H108.862C109.048 15.6852 109.343 15.2628 109.748 14.9436C110.143 14.6592 110.572 14.5176 111.031 14.5176C111.196 14.5176 111.343 14.5284 111.474 14.55V16.2444Z" fill="white"/>
<path d="M119.298 18.2988C119.298 18.618 119.276 18.8856 119.232 19.1052H113.906C113.929 19.8936 114.186 20.4972 114.679 20.9136C115.129 21.2868 115.709 21.4728 116.422 21.4728C117.211 21.4728 117.929 21.3468 118.576 21.0948L118.855 22.3272C118.098 22.656 117.205 22.8204 116.176 22.8204C114.937 22.8204 113.964 22.4556 113.257 21.7272C112.55 20.9988 112.196 20.0208 112.196 18.7932C112.196 17.5872 112.525 16.5852 113.183 15.7848C113.873 14.9292 114.805 14.5032 115.978 14.5032C117.128 14.5032 118 14.9292 118.591 15.7848C119.063 16.4628 119.298 17.3004 119.298 18.2988ZM117.606 17.8392C117.617 17.3136 117.502 16.8588 117.26 16.4736C116.953 15.9804 116.483 15.7344 115.846 15.7344C115.266 15.7344 114.794 15.9756 114.432 16.458C114.136 16.842 113.96 17.3016 113.906 17.8392H117.606Z" fill="white"/>
<path d="M122.783 11.2956C122.31 12.9504 121.753 14.31 121.106 15.372L120.005 15.4872C120.486 14.172 120.832 12.8304 121.04 11.46L122.783 11.2956Z" fill="white"/>
<path d="M130.016 22.6716H128.44L128.357 21.39H128.308C127.804 22.3644 126.949 22.8528 125.743 22.8528C124.778 22.8528 123.978 22.476 123.343 21.7188C122.707 20.9628 122.389 19.9824 122.389 18.7764C122.389 17.484 122.735 16.4364 123.425 15.6372C124.093 14.892 124.915 14.5188 125.891 14.5188C126.966 14.5188 127.716 14.88 128.143 15.6036H128.176V11.016H129.95V20.5176C129.95 21.2964 129.973 22.014 130.016 22.6716ZM128.174 19.3008V17.97C128.174 17.7396 128.158 17.5524 128.125 17.4108C128.026 16.9836 127.811 16.6248 127.482 16.3344C127.152 16.044 126.756 15.8988 126.293 15.8988C125.633 15.8988 125.113 16.1628 124.733 16.6884C124.354 17.214 124.163 17.8884 124.163 18.7104C124.163 19.4988 124.344 20.1408 124.708 20.634C125.093 21.1596 125.61 21.4236 126.259 21.4236C126.842 21.4236 127.31 21.204 127.663 20.766C128.005 20.3592 128.174 19.872 128.174 19.3008Z" fill="white"/>
<path d="M138.17 22.6716H136.577L136.445 21.75H136.396C135.848 22.4844 135.071 22.8516 134.062 22.8516C133.306 22.8516 132.697 22.6116 132.236 22.128C131.82 21.69 131.611 21.1476 131.611 20.5008C131.611 19.5264 132.019 18.78 132.836 18.2652C133.654 17.7504 134.802 17.4984 136.28 17.5092V17.3616C136.28 16.3092 135.728 15.7836 134.624 15.7836C133.836 15.7836 133.142 15.9804 132.541 16.3752L132.179 15.2076C132.923 14.7468 133.837 14.5176 134.921 14.5176C137.01 14.5176 138.055 15.6192 138.055 17.8224V20.7648C138.055 21.564 138.094 22.2 138.17 22.6716ZM136.328 19.926V18.6936C134.366 18.6612 133.386 19.1976 133.386 20.3052C133.386 20.7216 133.501 21.0336 133.729 21.2412C133.957 21.45 134.248 21.5544 134.596 21.5544C134.988 21.5544 135.35 21.4308 135.683 21.1836C136.015 20.9376 136.219 20.622 136.296 20.2392C136.319 20.1504 136.328 20.0472 136.328 19.926Z" fill="white"/>
<path d="M147.179 22.6716H145.404V18.0972C145.404 16.686 144.868 15.9804 143.792 15.9804C143.267 15.9804 142.84 16.1748 142.511 16.5624C142.182 16.95 142.018 17.4072 142.018 17.9328V22.6716H140.243V16.9668C140.243 16.266 140.22 15.5028 140.177 14.682H141.739L141.821 15.9312H141.87C142.078 15.5436 142.385 15.2208 142.79 14.9664C143.273 14.6676 143.81 14.5176 144.402 14.5176C145.147 14.5176 145.768 14.7588 146.26 15.2412C146.874 15.8328 147.181 16.716 147.181 17.8884V22.6716H147.179Z" fill="white"/>
<path d="M54.1644 27.9036C54.1644 28.0896 54.1032 28.2444 53.9844 28.3692C53.8632 28.494 53.7096 28.5552 53.5248 28.5552C53.346 28.5552 53.1972 28.4904 53.076 28.3644C52.9548 28.236 52.896 28.0836 52.896 27.9036C52.896 27.726 52.9584 27.5724 53.082 27.4428C53.2068 27.3168 53.3568 27.252 53.5356 27.252C53.7216 27.252 53.874 27.3168 53.9904 27.4428C54.1056 27.5724 54.1644 27.7248 54.1644 27.9036ZM54.1524 36.9132H52.896V29.0676H54.1536V36.9132H54.1524Z" fill="white"/>
<path d="M61.3463 36.9132H60.0887V33.6732C60.0887 32.6748 59.7095 32.1756 58.9487 32.1756C58.5755 32.1756 58.2743 32.3136 58.0403 32.5884C57.8087 32.8632 57.6911 33.186 57.6911 33.5592V36.9144H56.4335V32.8752C56.4335 32.3784 56.4179 31.8396 56.3879 31.2576H57.4931L57.5519 32.1408H57.5867C57.7331 31.866 57.9515 31.6392 58.2383 31.4592C58.5791 31.2468 58.9607 31.14 59.3783 31.14C59.9063 31.14 60.3455 31.3116 60.6947 31.6536C61.1291 32.0724 61.3463 32.6964 61.3463 33.5268V36.9132Z" fill="white"/>
<path d="M68.586 36.9132H67.4688L67.41 36.0048H67.3752C67.0188 36.696 66.4128 37.0404 65.5596 37.0404C64.8768 37.0404 64.3104 36.7728 63.8604 36.2376C63.4104 35.7024 63.186 35.0088 63.186 34.1544C63.186 33.2388 63.4296 32.4972 63.918 31.9308C64.392 31.404 64.974 31.1388 65.664 31.1388C66.4248 31.1388 66.9564 31.3956 67.2588 31.908H67.2828V28.6596H68.5404V35.388C68.5404 35.9388 68.5548 36.4476 68.586 36.9132ZM67.2828 34.5264V33.5832C67.2828 33.42 67.2708 33.288 67.248 33.1872C67.1772 32.8848 67.0248 32.6316 66.792 32.4252C66.558 32.2188 66.2772 32.1156 65.9508 32.1156C65.4828 32.1156 65.1156 32.3028 64.8456 32.676C64.5768 33.0492 64.4424 33.5244 64.4424 34.1064C64.4424 34.6656 64.5708 35.1204 64.8288 35.4696C65.1012 35.8416 65.4672 36.0276 65.9268 36.0276C66.3396 36.0276 66.6708 35.8728 66.9204 35.562C67.1616 35.2752 67.2828 34.9296 67.2828 34.5264Z" fill="white"/>
<path d="M72.1716 29.5692C72.1716 29.7948 72.0972 29.976 71.9508 30.1152C71.8032 30.2556 71.6136 30.3252 71.3796 30.3252C71.1696 30.3252 70.9932 30.2532 70.8504 30.1104C70.7064 29.9664 70.6344 29.7852 70.6344 29.5692C70.6344 29.3508 70.7088 29.1732 70.8564 29.0328C71.004 28.8948 71.1852 28.824 71.4036 28.824C71.6208 28.824 71.8032 28.8948 71.9508 29.0328C72.0984 29.1732 72.1716 29.3508 72.1716 29.5692ZM72.0324 36.9132H70.7748V31.2564H72.0324V36.9132Z" fill="white"/>
<path d="M77.2572 32.3628C77.1324 32.3388 77.0016 32.328 76.8612 32.328C76.4196 32.328 76.0788 32.4948 75.8364 32.8272C75.6276 33.1224 75.522 33.4956 75.522 33.9456V36.9144H74.2644L74.2764 33.0396C74.2764 32.3868 74.2608 31.7928 74.2308 31.2588H75.324L75.3708 32.3412H75.4056C75.5364 31.968 75.7464 31.668 76.0332 31.4436C76.3128 31.242 76.6152 31.1412 76.9416 31.1412C77.058 31.1412 77.1636 31.1496 77.256 31.1652V32.3628H77.2572Z" fill="white"/>
<path d="M80.2596 29.5692C80.2596 29.7948 80.1852 29.976 80.0388 30.1152C79.8912 30.2556 79.7016 30.3252 79.4676 30.3252C79.2576 30.3252 79.0812 30.2532 78.9384 30.1104C78.7944 29.9664 78.7224 29.7852 78.7224 29.5692C78.7224 29.3508 78.7968 29.1732 78.9444 29.0328C79.092 28.8948 79.2732 28.824 79.4916 28.824C79.7088 28.824 79.8912 28.8948 80.0388 29.0328C80.1864 29.1732 80.2596 29.3508 80.2596 29.5692ZM80.1204 36.9132H78.8628V31.2564H80.1204V36.9132Z" fill="white"/>
<path d="M87.2676 36.9132H86.0088V33.6732C86.0088 32.6748 85.6296 32.1756 84.87 32.1756C84.4968 32.1756 84.1956 32.3136 83.9604 32.5884C83.7288 32.8632 83.6112 33.186 83.6112 33.5592V36.9144H82.3548V32.8752C82.3548 32.3784 82.3392 31.8396 82.3092 31.2576H83.4144L83.4732 32.1408H83.508C83.6532 31.866 83.8716 31.6392 84.1596 31.4592C84.4992 31.2468 84.882 31.14 85.2984 31.14C85.8276 31.14 86.2668 31.3116 86.616 31.6536C87.0492 32.0724 87.2676 32.6964 87.2676 33.5268V36.9132Z" fill="white"/>
</svg>
